<svg width="200" height="200" viewBox="0 0 200 200" fill="none" xmlns="http://www.w3.org/2000/svg">
<path d="M131.251 157C165.769 157 193.751 130.137 193.751 97C193.751 63.8629 165.769 37 131.251 37C96.7332 37 68.751 63.8629 68.751 97C68.751 130.137 96.7332 157 131.251 157Z" fill="#FFDE2D"/>
<path d="M68.75 157C103.268 157 131.25 130.137 131.25 97C131.25 63.8629 103.268 37 68.75 37C34.2322 37 6.25 63.8629 6.25 97C6.25 130.137 34.2322 157 68.75 157Z" fill="#327EFF"/>
<path d="M6.25 97C6.24999 63.8629 34.2321 37.0001 68.75 37.0001V97H6.25Z" fill="#327EFF"/>
<path d="M131.251 97.0001C131.251 130.137 103.268 157 68.7505 157V97.0001H131.251Z" fill="#FF6446"/>
<path d="M68.7505 97C68.7505 63.8629 96.7327 37.0001 131.251 37.0001V97H68.7505Z" fill="#FF6446"/>
</svg>
