<svg width="200" height="200" viewBox="0 0 200 200" fill="none" xmlns="http://www.w3.org/2000/svg">
<g clip-path="url(#clip0_1165_3339)">
<path d="M193.893 140.859C193.401 139.006 192.606 137.248 191.539 135.656C191.768 134.818 191.943 133.966 192.059 133.105C192.816 127.642 190.922 122.641 187.354 118.772C185.421 116.659 183.349 115.263 181.154 114.407C182.594 108.243 183.323 101.935 183.327 95.6061C183.327 92.715 183.163 89.8832 182.889 87.0935C182.746 85.7004 182.573 84.3111 182.37 82.9253C181.743 78.8367 180.81 74.8002 179.582 70.8506C178.776 68.2553 177.845 65.7007 176.79 63.1962C175.21 59.4871 173.364 55.8965 171.268 52.4523C169.894 50.1608 168.396 47.9449 166.783 45.8144C165.992 44.7386 165.169 43.6881 164.311 42.6645C161.772 39.5787 159.013 36.6808 156.055 33.9937C155.072 33.0904 154.062 32.218 153.025 31.3777C152.003 30.5261 150.96 29.702 149.895 28.9061C147.751 27.3107 145.537 25.814 143.257 24.4208C130.66 16.7701 115.888 12.3826 100.099 12.3826C54.1293 12.3826 16.8722 49.6416 16.8722 95.6089C16.8703 102.018 17.6125 108.406 19.0842 114.643C17.1098 115.501 15.2177 116.837 13.4627 118.77C9.89511 122.638 8.00026 127.62 8.75802 133.083C8.87319 133.95 9.04595 134.809 9.27629 135.654C8.21059 137.247 7.4159 139.006 6.92441 140.859C5.82753 145.028 6.18859 148.787 7.58253 152.081C6.06702 156.387 6.44544 160.972 8.4189 164.958C9.85398 167.869 11.9079 170.121 14.4398 172.134C17.4498 174.527 21.2176 176.56 25.7623 178.511C31.1845 180.823 37.8033 182.996 40.8133 183.793C48.5883 185.806 56.0434 187.082 63.599 187.144C74.3639 187.244 83.6344 184.713 90.2714 178.235C93.5318 178.634 96.8142 178.834 100.099 178.832C103.57 178.825 107.037 178.607 110.481 178.179C117.103 184.698 126.409 187.252 137.213 187.149C144.768 187.089 152.223 185.813 159.978 183.798C163.008 183.001 169.624 180.828 175.049 178.515C179.594 176.562 183.361 174.529 186.391 172.14C188.904 170.126 190.956 167.875 192.392 164.963C194.386 160.976 194.744 156.391 193.25 152.086C194.63 148.792 194.989 145.024 193.893 140.859ZM186.178 151.803C187.706 154.701 187.804 157.976 186.456 161.027C184.413 165.649 179.336 169.291 169.476 173.2C163.344 175.631 157.73 177.186 157.681 177.2C149.571 179.303 142.237 180.372 135.888 180.372C125.374 180.372 117.551 177.47 112.589 171.741C104.199 173.171 95.6323 173.219 87.2266 171.886C82.2587 177.52 74.48 180.372 64.0551 180.372C57.7052 180.372 50.3716 179.303 42.2612 177.2C42.2118 177.186 36.5994 175.631 30.4661 173.2C20.607 169.291 15.5285 165.652 13.4856 161.027C12.1382 157.976 12.236 154.701 13.7634 151.803C13.9042 151.533 14.0559 151.271 14.2177 151.017C13.3024 149.642 12.6884 148.089 12.4161 146.459C12.1439 144.83 12.2196 143.162 12.6382 141.564C13.2452 139.258 14.4983 137.34 16.2003 135.963C15.3804 134.616 14.8425 133.117 14.619 131.555C14.129 128.16 15.2561 124.771 17.7908 122.007C19.7652 119.856 22.5558 118.672 25.6453 118.672H25.7276C23.3981 111.206 22.217 103.428 22.2249 95.6061C22.2249 52.9459 56.8094 18.3587 99.476 18.3587C142.142 18.3587 176.726 52.9423 176.726 95.6061C176.733 103.449 175.543 111.247 173.199 118.731C173.572 118.694 173.937 118.676 174.297 118.675C177.386 118.675 180.178 119.859 182.15 122.01C184.685 124.771 185.813 128.163 185.322 131.558C185.099 133.119 184.561 134.618 183.742 135.966C185.444 137.343 186.698 139.261 187.304 141.567C187.722 143.165 187.798 144.833 187.526 146.463C187.254 148.092 186.64 149.645 185.724 151.019C185.886 151.271 186.04 151.533 186.178 151.803Z" fill="white"/>
<path d="M185.724 151.019C186.64 149.645 187.254 148.092 187.527 146.463C187.798 144.833 187.722 143.165 187.304 141.567C186.697 139.261 185.443 137.343 183.742 135.966C184.562 134.618 185.099 133.119 185.322 131.558C185.813 128.163 184.686 124.774 182.15 122.01C180.178 119.859 177.386 118.675 174.297 118.675C173.937 118.675 173.572 118.694 173.199 118.731C175.541 111.247 176.728 103.45 176.72 95.6079C176.72 52.9469 142.135 18.3606 99.4734 18.3606C56.8104 18.3606 22.2222 52.9432 22.2222 95.6079C22.2145 103.43 23.3956 111.207 25.725 118.674H25.6426C22.5531 118.674 19.7626 119.857 17.7891 122.008C15.2544 124.769 14.1264 128.162 14.6172 131.556C14.8409 133.117 15.3788 134.617 16.1986 135.965C14.4966 137.341 13.2426 139.259 12.6356 141.565C12.2172 143.164 12.1418 144.832 12.4143 146.462C12.6869 148.091 13.3012 149.645 14.2169 151.019C14.0542 151.273 13.9043 151.536 13.7626 151.805C12.2361 154.704 12.1375 157.979 13.4857 161.029C15.5295 165.652 20.6062 169.293 30.4662 173.203C36.5968 175.634 42.2119 177.189 42.2613 177.203C50.3709 179.306 57.7053 180.374 64.0544 180.374C74.4802 180.374 82.2589 177.523 87.2268 171.888C95.6325 173.222 104.199 173.173 112.589 171.744C117.551 177.473 125.374 180.374 135.888 180.374C142.237 180.374 149.571 179.306 157.68 177.203C157.73 177.189 163.343 175.634 169.476 173.203C179.336 169.293 184.414 165.652 186.456 161.029C187.804 157.979 187.706 154.704 186.179 151.805C186.04 151.534 185.886 151.271 185.724 151.019ZM83.672 163.068C83.2442 163.815 82.7863 164.546 82.2991 165.256C81.0148 167.136 79.3256 168.573 77.365 169.641C73.6172 171.684 68.8733 172.398 64.0544 172.398C56.4412 172.398 48.6369 170.617 44.2631 169.482C44.0474 169.427 17.45 161.914 20.8174 155.519C21.3841 154.443 22.3164 154.014 23.4909 154.014C28.2322 154.014 36.8655 161.074 40.5757 161.074C41.4047 161.074 41.9897 160.721 42.2283 159.86C43.8096 154.189 18.1949 151.805 20.352 143.593C20.7323 142.14 21.7653 141.55 23.2168 141.55C29.4855 141.549 43.5547 152.573 46.4971 152.573C46.7228 152.573 46.8845 152.506 46.9723 152.368C46.9851 152.347 46.998 152.326 47.0099 152.304C48.391 150.024 47.5984 148.366 38.137 142.571L37.2284 142.018C26.8163 135.716 19.5084 131.924 23.6646 127.399C24.1427 126.877 24.8209 126.646 25.6445 126.646C26.6207 126.646 27.8026 126.972 29.1042 127.521C34.6032 129.84 42.2247 136.164 45.4084 138.922C45.9092 139.357 46.4069 139.796 46.901 140.239C46.901 140.239 50.9321 144.431 53.369 144.431C53.9302 144.431 54.4064 144.21 54.729 143.663C56.4576 140.749 38.6753 127.274 37.6726 121.714C36.9926 117.947 38.1498 116.038 40.2887 116.038C41.306 116.038 42.5473 116.471 43.9175 117.341C48.1679 120.038 56.3743 134.14 59.3789 139.626C60.3862 141.465 62.1055 142.242 63.6548 142.242C66.7288 142.242 69.1319 139.186 63.9364 135.303C56.1275 129.46 58.868 119.91 62.5946 119.322C62.7537 119.297 62.9145 119.284 63.0744 119.284C66.4638 119.284 67.9583 125.124 67.9583 125.124C67.9583 125.124 72.3403 136.127 79.8677 143.649C86.6975 150.476 87.6518 156.079 83.672 163.068ZM108.013 164.356L107.622 164.403L106.957 164.479C106.607 164.515 106.256 164.55 105.904 164.582L105.561 164.613L105.248 164.64L104.803 164.675L104.312 164.711L103.823 164.743L103.714 164.75C103.586 164.758 103.458 164.766 103.328 164.772L103.164 164.781C103.013 164.79 102.861 164.797 102.707 164.803L102.176 164.826L101.695 164.843L101.373 164.852H101.209C101.109 164.852 101.009 164.857 100.908 164.858H100.749C100.649 164.858 100.549 164.858 100.449 164.863L100.039 164.868H99.4679C99.0191 164.868 98.5712 164.864 98.1251 164.855L97.7632 164.846C97.6599 164.846 97.5566 164.842 97.4551 164.838L97.0712 164.827L96.595 164.809L96.1654 164.79L96.0548 164.785L95.6462 164.764C95.532 164.758 95.4195 164.752 95.3062 164.744L95.042 164.728C94.7102 164.707 94.3784 164.685 94.0466 164.659L93.6993 164.631C93.553 164.62 93.4068 164.606 93.2614 164.593C93.0905 164.579 92.9196 164.562 92.7486 164.546C92.4625 164.519 92.1764 164.49 91.8903 164.459H91.8766C96.0539 155.14 93.9415 146.436 85.5001 138.002C79.9636 132.473 76.2809 124.309 75.5167 122.516C73.97 117.21 69.877 111.312 63.0791 111.312C62.5041 111.312 61.9301 111.357 61.3625 111.447C58.3845 111.916 55.7812 113.63 53.9238 116.209C51.9166 113.713 49.9659 111.728 48.2018 110.608C45.5419 108.921 42.8873 108.066 40.3015 108.066C37.0739 108.066 34.1891 109.391 32.1782 111.795L32.127 111.856C32.0886 111.698 32.052 111.54 32.0146 111.381L32.01 111.36C31.6273 109.724 31.306 108.074 31.0466 106.413C31.0466 106.402 31.0466 106.391 31.0411 106.38C31.021 106.255 31.0027 106.129 30.9835 106.004C30.9273 105.632 30.8746 105.26 30.8254 104.888C30.8034 104.719 30.7797 104.55 30.7587 104.381L30.6965 103.874C30.6764 103.705 30.6599 103.551 30.6417 103.39L30.6363 103.35C30.5632 102.692 30.4992 102.034 30.4442 101.374L30.4241 101.121L30.3921 100.689C30.383 100.571 30.3738 100.452 30.3674 100.334C30.3674 100.305 30.3629 100.278 30.3619 100.251C30.3387 99.9205 30.3189 99.5887 30.3025 99.2569C30.2934 99.0841 30.2843 98.9123 30.2769 98.7386L30.2587 98.2852L30.2541 98.1481L30.2395 97.7304L30.2303 97.3748C30.2303 97.2331 30.223 97.0915 30.2212 96.9498C30.2184 96.8081 30.2148 96.6527 30.2139 96.5028C30.212 96.3529 30.2139 96.2048 30.2093 96.0558C30.2056 95.9059 30.2093 95.7569 30.2093 95.6079C30.2093 57.3518 61.2243 26.3367 99.4844 26.3367C137.743 26.3367 168.757 57.3508 168.757 95.6079V96.5028C168.757 96.6518 168.753 96.8017 168.75 96.9498C168.75 97.0732 168.745 97.1947 168.741 97.32C168.741 97.4297 168.736 97.5403 168.733 97.6463C168.733 97.7861 168.725 97.926 168.72 98.0658V98.0768L168.701 98.5622C168.694 98.7039 168.689 98.8465 168.682 98.9881L168.677 99.0887L168.652 99.5421C168.598 100.514 168.524 101.484 168.432 102.452V102.464C168.417 102.623 168.401 102.782 168.384 102.941L168.343 103.317L168.261 104.052L168.215 104.424L168.157 104.862C168.136 105.021 168.115 105.181 168.091 105.339C168.067 105.517 168.041 105.695 168.014 105.872L167.951 106.291L167.876 106.767C167.851 106.925 167.823 107.082 167.794 107.239C167.764 107.397 167.74 107.555 167.713 107.712C167.658 108.026 167.6 108.341 167.54 108.654C167.448 109.123 167.354 109.591 167.257 110.059L167.156 110.523C167.123 110.677 167.088 110.833 167.053 110.987C165.103 109.092 162.521 108.06 159.674 108.06C157.089 108.06 154.432 108.915 151.773 110.601C150.009 111.722 148.059 113.707 146.051 116.203C144.191 113.623 141.588 111.909 138.612 111.44C138.044 111.351 137.47 111.305 136.895 111.305C130.095 111.305 126.005 117.204 124.457 122.51C123.69 124.302 120.006 132.467 114.465 138.004C106.029 146.412 103.901 155.076 108.013 164.356ZM179.53 145.701L179.502 145.783C179.433 145.966 179.352 146.146 179.262 146.319C179.193 146.447 179.119 146.571 179.039 146.692C178.886 146.92 178.719 147.137 178.537 147.342C178.495 147.39 178.455 147.437 178.407 147.484C178.341 147.554 178.275 147.624 178.206 147.691C176.976 148.911 175.1 149.98 172.98 150.961C172.739 151.07 172.495 151.178 172.249 151.288L172.004 151.397C171.841 151.469 171.677 151.54 171.505 151.611C171.342 151.682 171.172 151.753 171.002 151.823L170.491 152.033C169.299 152.524 168.077 152.992 166.885 153.453L166.375 153.652L165.871 153.849C165.535 153.98 165.205 154.111 164.879 154.241L164.394 154.437L163.917 154.632L163.683 154.73C163.526 154.795 163.374 154.86 163.221 154.925C159.714 156.431 157.19 157.962 157.72 159.861C157.735 159.915 157.751 159.966 157.77 160.016C157.817 160.157 157.882 160.29 157.963 160.415C158.011 160.489 158.066 160.559 158.127 160.623C158.75 161.271 159.885 161.169 161.315 160.654C161.516 160.58 161.716 160.504 161.915 160.423L162.039 160.372C162.366 160.233 162.713 160.078 163.067 159.909C163.155 159.867 163.245 159.827 163.334 159.781C165.084 158.925 167.066 157.773 169.034 156.725C169.821 156.3 170.619 155.897 171.427 155.514C173.289 154.637 175.041 154.016 176.448 154.016C177.109 154.016 177.692 154.151 178.179 154.462L178.26 154.516C178.565 154.73 178.821 155.006 179.012 155.326C179.05 155.388 179.086 155.453 179.122 155.519C179.818 156.84 179.235 158.207 177.873 159.548C176.565 160.836 174.53 162.099 172.217 163.267C172.045 163.354 171.874 163.441 171.699 163.526C164.816 166.906 155.802 169.451 155.677 169.483C153.275 170.106 149.84 170.923 145.97 171.535L145.398 171.624L145.304 171.638C144.87 171.704 144.436 171.765 144.001 171.822C143.56 171.881 143.113 171.935 142.665 171.985L142.582 171.994C140.955 172.182 139.322 172.306 137.685 172.365H137.661C137.069 172.386 136.477 172.397 135.885 172.397H135.202C134.299 172.386 133.398 172.344 132.498 172.275C132.477 172.275 132.454 172.275 132.433 172.269C132.11 172.245 131.788 172.215 131.466 172.179C131.133 172.143 130.8 172.103 130.468 172.058C130.25 172.029 130.032 171.996 129.815 171.96C129.594 171.925 129.372 171.888 129.152 171.85L128.851 171.793L128.829 171.789C128.511 171.728 128.196 171.662 127.882 171.588C127.699 171.547 127.517 171.507 127.337 171.458L127.228 171.43C127.138 171.408 127.052 171.385 126.963 171.361L126.914 171.348L126.633 171.266C126.531 171.237 126.428 171.206 126.326 171.176L126.29 171.166L126.024 171.085C125.924 171.054 125.823 171.021 125.723 170.988L125.478 170.907L125.298 170.843C125.125 170.782 124.952 170.719 124.781 170.653L124.618 170.589L124.484 170.536C124.224 170.432 123.967 170.323 123.712 170.209L123.542 170.127L123.514 170.114C123.454 170.086 123.394 170.057 123.334 170.033C123.216 169.976 123.099 169.918 122.983 169.858L122.947 169.841L122.779 169.752C122.48 169.596 122.188 169.429 121.901 169.253L121.744 169.156C121.665 169.108 121.586 169.057 121.51 169.006L121.305 168.871L121.085 168.719L120.953 168.625C120.814 168.526 120.678 168.424 120.544 168.319L120.331 168.155C120.246 168.087 120.162 168.017 120.079 167.947C120.009 167.889 119.94 167.829 119.872 167.769L119.866 167.764C119.792 167.699 119.72 167.634 119.648 167.567C119.576 167.503 119.505 167.437 119.436 167.37L119.427 167.362C119.354 167.292 119.283 167.222 119.213 167.15C119.142 167.078 119.07 167.007 119.001 166.934C118.933 166.862 118.862 166.788 118.795 166.712C118.727 166.637 118.665 166.568 118.601 166.494L118.58 166.47C118.518 166.398 118.457 166.326 118.396 166.252C118.266 166.096 118.139 165.936 118.016 165.772C117.893 165.608 117.772 165.44 117.654 165.269L117.542 165.1C117.392 164.881 117.246 164.66 117.104 164.435C116.998 164.273 116.895 164.111 116.794 163.945C116.729 163.842 116.667 163.738 116.605 163.635L116.579 163.593C116.52 163.493 116.461 163.394 116.405 163.294C116.372 163.24 116.341 163.186 116.311 163.131C116.281 163.074 116.246 163.016 116.214 162.959L116.162 162.868L116.13 162.81C116.069 162.7 116.009 162.59 115.95 162.478C115.923 162.429 115.896 162.379 115.868 162.332L115.787 162.174L115.704 162.017C115.499 161.606 115.304 161.189 115.121 160.767L115.056 160.612C115.014 160.509 114.975 160.407 114.933 160.305C114.913 160.256 114.893 160.207 114.875 160.158C114.778 159.905 114.686 159.649 114.602 159.391C114.572 159.299 114.543 159.208 114.515 159.117C114.449 158.909 114.39 158.7 114.337 158.489C114.272 158.243 114.214 157.995 114.166 157.746C114.156 157.696 114.146 157.645 114.138 157.597C114.09 157.353 114.052 157.107 114.022 156.86C114.014 156.812 114.009 156.763 114.003 156.715L113.988 156.567C113.968 156.373 113.952 156.178 113.943 155.984C113.943 155.934 113.938 155.885 113.937 155.837C113.932 155.74 113.93 155.644 113.929 155.547C113.878 151.641 115.854 147.886 120.08 143.662C127.607 136.142 131.989 125.138 131.989 125.138C131.989 125.138 132.107 124.676 132.352 124.011C132.386 123.919 132.422 123.824 132.462 123.724C132.605 123.352 132.765 122.987 132.944 122.63L132.979 122.562C133.131 122.258 133.297 121.962 133.477 121.674C133.519 121.608 133.559 121.542 133.605 121.475C133.74 121.277 133.881 121.083 134.03 120.895C134.112 120.794 134.2 120.693 134.289 120.596C134.325 120.557 134.359 120.519 134.397 120.482C134.833 120.032 135.331 119.664 135.895 119.469L135.966 119.445C136.014 119.429 136.061 119.415 136.11 119.401C136.166 119.386 136.221 119.374 136.279 119.362L136.306 119.356C136.424 119.332 136.545 119.317 136.667 119.309H136.677C136.74 119.309 136.804 119.302 136.869 119.302C136.95 119.302 137.026 119.302 137.105 119.31C137.188 119.318 137.269 119.327 137.351 119.34C138.029 119.448 138.675 119.852 139.231 120.475C139.442 120.713 139.632 120.969 139.798 121.239C139.908 121.415 140.011 121.6 140.109 121.796C140.148 121.877 140.186 121.952 140.222 122.033C140.317 122.239 140.403 122.449 140.478 122.664C140.656 123.167 140.791 123.684 140.88 124.211C140.956 124.672 141.002 125.139 141.017 125.606C141.024 125.855 141.024 126.108 141.017 126.363C140.967 127.55 140.724 128.721 140.297 129.83C140.259 129.931 140.216 130.033 140.175 130.136C140.091 130.342 139.998 130.545 139.899 130.744C139.825 130.894 139.747 131.046 139.663 131.197C139.608 131.297 139.55 131.398 139.493 131.499C139.346 131.749 139.187 131.998 139.016 132.245L138.912 132.393C138.508 132.957 138.059 133.485 137.567 133.973C137.082 134.458 136.563 134.907 136.014 135.317C135.464 135.724 134.947 136.176 134.47 136.667C133.096 138.108 132.776 139.381 133.085 140.345C133.135 140.497 133.2 140.644 133.278 140.783C133.37 140.942 133.48 141.088 133.604 141.221L133.653 141.272L133.702 141.321C133.752 141.369 133.804 141.415 133.86 141.461L133.914 141.505C134.047 141.607 134.188 141.699 134.335 141.779C134.378 141.802 134.416 141.825 134.465 141.847C134.624 141.924 134.787 141.991 134.955 142.045C135.002 142.061 135.049 142.074 135.096 142.089L135.156 142.104L135.238 142.126L135.308 142.144L135.385 142.16L135.461 142.176L135.533 142.188C135.586 142.197 135.641 142.206 135.696 142.212L135.748 142.221L135.843 142.23L135.902 142.236L135.998 142.242H136.054L136.155 142.248H136.471L136.561 142.242L136.666 142.236L136.793 142.224L136.912 142.21C136.939 142.21 136.966 142.203 136.994 142.198C137.359 142.145 137.718 142.048 138.061 141.909L138.206 141.848C138.287 141.812 138.369 141.774 138.444 141.734C138.605 141.654 138.762 141.562 138.912 141.463C139.121 141.326 139.318 141.172 139.503 141.003C139.547 140.964 139.59 140.922 139.632 140.881C139.653 140.861 139.673 140.842 139.693 140.82C139.733 140.779 139.774 140.739 139.815 140.694C140.107 140.372 140.36 140.018 140.569 139.636C142.358 136.383 144.232 133.179 146.191 130.026L146.46 129.596L146.731 129.165C146.867 128.947 147.004 128.732 147.14 128.518L147.277 128.304C147.732 127.591 148.195 126.883 148.665 126.18L148.944 125.763C149.504 124.934 150.061 124.128 150.614 123.362L150.889 122.982C151.491 122.153 152.117 121.342 152.767 120.55L153.025 120.241C153.068 120.19 153.107 120.139 153.154 120.089C153.239 119.989 153.324 119.891 153.407 119.796C153.449 119.747 153.488 119.7 153.533 119.652L153.778 119.376L153.9 119.242C154.024 119.109 154.144 118.982 154.263 118.861C154.345 118.778 154.421 118.697 154.5 118.62C154.963 118.147 155.474 117.722 156.026 117.353L156.153 117.271C156.276 117.189 156.403 117.112 156.533 117.043C158.694 115.816 160.482 115.726 161.513 116.756C162.136 117.379 162.482 118.413 162.462 119.852C162.462 119.915 162.462 119.979 162.458 120.044V120.115C162.458 120.181 162.452 120.246 162.447 120.313C162.447 120.395 162.438 120.477 162.429 120.559C162.421 120.64 162.417 120.703 162.408 120.776C162.408 120.796 162.405 120.817 162.401 120.839C162.396 120.902 162.387 120.967 162.378 121.032C162.378 121.051 162.378 121.071 162.371 121.091C162.361 121.178 162.348 121.264 162.333 121.35C162.323 121.432 162.31 121.509 162.295 121.589L162.271 121.725C162.248 121.855 162.217 121.983 162.18 122.109C162.109 122.346 162.023 122.577 161.921 122.802C161.78 123.111 161.623 123.412 161.451 123.704C161.356 123.867 161.259 124.027 161.157 124.185C161.053 124.349 160.943 124.514 160.83 124.682C160.541 125.095 160.241 125.5 159.929 125.895L159.787 126.075C159.279 126.709 158.754 127.33 158.213 127.936L158.042 128.128C157.812 128.384 157.578 128.643 157.338 128.903L157.158 129.098C157.038 129.229 156.913 129.36 156.792 129.491C156.673 129.622 156.547 129.755 156.421 129.887L156.046 130.283L155.664 130.681L155.281 131.08C155.023 131.347 154.764 131.614 154.504 131.881C150.797 135.682 146.892 139.471 145.57 141.833C145.482 141.987 145.402 142.146 145.331 142.307C145.143 142.737 145.064 143.104 145.118 143.402C145.135 143.499 145.169 143.593 145.219 143.678C145.294 143.807 145.384 143.926 145.489 144.032C145.538 144.08 145.589 144.124 145.643 144.164C145.915 144.358 146.243 144.457 146.578 144.448H146.682L146.789 144.44L146.896 144.428L146.985 144.415C146.996 144.413 147.009 144.412 147.021 144.408L147.102 144.392L147.123 144.388L147.214 144.369L147.246 144.36C147.278 144.352 147.309 144.344 147.341 144.335C147.373 144.326 147.417 144.314 147.455 144.301C147.616 144.253 147.773 144.195 147.928 144.129C148.009 144.096 148.089 144.061 148.167 144.022C148.208 144.004 148.25 143.985 148.288 143.965L148.41 143.904C148.703 143.753 148.988 143.587 149.266 143.41L149.388 143.327C149.429 143.302 149.47 143.275 149.509 143.246L149.631 143.165L149.696 143.12L149.871 142.997C150.035 142.884 150.187 142.768 150.342 142.65L150.356 142.639L150.601 142.449C150.937 142.184 151.255 141.917 151.544 141.666L151.736 141.498L151.753 141.481L151.854 141.392C152.09 141.18 152.3 140.983 152.474 140.82L152.547 140.75C152.61 140.69 152.667 140.635 152.719 140.587L152.822 140.486L152.858 140.45L152.868 140.44L152.975 140.333L153.043 140.263L153.051 140.256L153.083 140.227L153.123 140.19L153.136 140.179L153.17 140.147L153.356 139.984L153.461 139.891C153.516 139.842 153.57 139.793 153.624 139.743L153.749 139.632C153.771 139.614 153.793 139.594 153.816 139.573L153.947 139.459L154.139 139.29L154.241 139.201C154.639 138.856 155.122 138.438 155.678 137.967L155.906 137.775L156.281 137.459L156.666 137.138C157.169 136.721 157.71 136.277 158.282 135.818L158.658 135.516C158.978 135.261 159.306 135.001 159.639 134.74C159.773 134.635 159.909 134.53 160.048 134.425C160.388 134.161 160.73 133.899 161.075 133.64C161.859 133.048 162.668 132.455 163.487 131.877L163.838 131.632C164.084 131.463 164.329 131.293 164.574 131.127L164.796 130.978C165.234 130.68 165.678 130.391 166.126 130.108L166.348 129.968L166.568 129.831C166.79 129.694 167.009 129.56 167.227 129.429L167.446 129.298L167.883 129.044L168.311 128.798L168.398 128.751L168.737 128.564C168.879 128.488 169.02 128.414 169.161 128.341L169.37 128.234L169.574 128.131C169.645 128.097 169.715 128.062 169.785 128.028C170.244 127.801 170.712 127.593 171.187 127.403C171.316 127.348 171.444 127.298 171.571 127.256L171.946 127.124C172.058 127.086 172.168 127.051 172.273 127.019L172.31 127.008C172.366 126.99 172.423 126.973 172.479 126.958L172.495 126.954C172.612 126.92 172.728 126.891 172.842 126.863H172.851C173.174 126.786 173.503 126.73 173.835 126.696C173.988 126.681 174.14 126.672 174.294 126.673H174.371C174.473 126.673 174.572 126.68 174.67 126.69C174.714 126.69 174.759 126.699 174.803 126.704H174.821C174.865 126.71 174.909 126.716 174.953 126.726C174.996 126.734 175.04 126.742 175.082 126.752H175.096C175.139 126.761 175.177 126.772 175.222 126.785C175.454 126.85 175.675 126.95 175.878 127.082C175.978 127.147 176.071 127.22 176.157 127.301L176.182 127.325C176.198 127.34 176.214 127.355 176.228 127.371L176.273 127.419C176.64 127.804 176.944 128.245 177.172 128.726L177.207 128.808C177.285 128.991 177.346 129.181 177.39 129.373C177.52 129.964 177.469 130.58 177.245 131.142C177.16 131.369 177.057 131.587 176.936 131.796C176.651 132.275 176.314 132.72 175.931 133.123L175.85 133.21C175.728 133.338 175.602 133.466 175.469 133.594C175.411 133.651 175.35 133.708 175.288 133.765L175.101 133.938L175.003 134.025C174.767 134.235 174.525 134.439 174.279 134.637C174.13 134.757 173.98 134.875 173.829 134.991C173.293 135.401 172.747 135.796 172.192 136.177C171.856 136.407 171.518 136.633 171.177 136.856C170.337 137.407 169.488 137.945 168.63 138.467C166.832 139.573 164.838 140.756 162.713 142.042L162.163 142.376C161.56 142.743 160.992 143.094 160.456 143.429L160.186 143.598L159.676 143.925C159.338 144.142 159.001 144.36 158.664 144.579L158.392 144.758C158.259 144.844 158.128 144.932 157.996 145.019L157.867 145.102L157.472 145.368L157.263 145.511L157.018 145.681L156.791 145.839C156.409 146.109 156.055 146.366 155.728 146.61L155.606 146.703C155.414 146.848 155.224 146.997 155.037 147.147C154.754 147.375 154.496 147.592 154.265 147.802L154.152 147.905C154.087 147.965 154.023 148.024 153.962 148.082C153.92 148.124 153.88 148.165 153.836 148.204L153.778 148.262C153.647 148.394 153.519 148.528 153.396 148.667L153.335 148.736C153.201 148.891 153.084 149.04 152.982 149.186L152.936 149.251C152.856 149.368 152.782 149.488 152.715 149.613C152.697 149.644 152.682 149.675 152.666 149.706L152.622 149.799L152.591 149.867L152.572 149.912L152.557 149.954L152.536 150.009C152.479 150.164 152.44 150.325 152.417 150.487L152.409 150.544L152.404 150.597V150.885C152.404 150.909 152.404 150.932 152.41 150.958L152.415 151.002C152.415 151.026 152.42 151.049 152.424 151.074C152.428 151.098 152.434 151.141 152.441 151.175V151.179C152.448 151.211 152.454 151.242 152.463 151.274C152.471 151.306 152.479 151.343 152.489 151.376C152.506 151.441 152.528 151.505 152.551 151.569C152.566 151.607 152.58 151.645 152.595 151.682C152.595 151.689 152.601 151.698 152.604 151.705L152.637 151.779L152.683 151.88C152.732 151.985 152.786 152.088 152.845 152.187L152.905 152.292L152.967 152.396C152.978 152.413 152.991 152.43 153.005 152.445L153.025 152.466L153.048 152.487L153.071 152.506C153.106 152.53 153.143 152.549 153.183 152.563C153.204 152.57 153.226 152.576 153.248 152.581C153.775 152.7 154.859 152.264 156.3 151.504C156.381 151.46 156.471 151.414 156.558 151.367L156.996 151.127L157.21 151.008C157.363 150.927 157.518 150.835 157.677 150.744L157.967 150.581C159.871 149.485 162.145 148.077 164.496 146.702C164.716 146.573 164.938 146.444 165.159 146.317L165.603 146.033C166.119 145.738 166.637 145.446 167.157 145.158C167.812 144.798 168.472 144.447 169.139 144.107L169.574 143.887C169.863 143.744 170.149 143.605 170.431 143.47C170.978 143.21 171.531 142.964 172.09 142.731L172.396 142.606L172.433 142.592C174.055 141.949 175.526 141.552 176.716 141.552C176.973 141.55 177.231 141.572 177.484 141.615H177.492C177.574 141.63 177.648 141.647 177.724 141.665H177.737C177.932 141.714 178.121 141.785 178.3 141.875C178.552 142.005 178.777 142.178 178.968 142.386C179.056 142.483 179.134 142.588 179.202 142.7C179.33 142.896 179.431 143.109 179.503 143.332C179.532 143.419 179.558 143.504 179.585 143.594C179.777 144.286 179.758 145.02 179.53 145.701Z" fill="#FF9D00"/>
<path fill-rule="evenodd" clip-rule="evenodd" d="M168.746 96.0558V95.607C168.746 57.3498 137.743 26.3366 99.4832 26.3366C61.2243 26.3366 30.2091 57.3517 30.2091 95.607V95.7569C30.2073 95.8565 30.2064 95.9562 30.2091 96.0558C30.2136 96.2048 30.2151 96.3538 30.2137 96.5028L30.2183 96.8318L30.221 96.9498C30.221 97.0046 30.2229 97.0585 30.2247 97.1134C30.2275 97.2002 30.2292 97.288 30.2292 97.3748L30.2393 97.7304L30.2539 98.1481L30.2585 98.2852L30.2768 98.7176V98.7386C30.2841 98.9077 30.2933 99.0759 30.3015 99.2441L30.3024 99.2569C30.3115 99.4287 30.3207 99.6015 30.3317 99.7742C30.3408 99.9333 30.3499 100.092 30.3618 100.251L30.3637 100.28C30.3716 100.416 30.3808 100.553 30.391 100.689L30.3938 100.726L30.4239 101.121L30.4268 101.146C30.4322 101.223 30.4376 101.3 30.4449 101.374C30.4996 102.033 30.5633 102.692 30.6361 103.349L30.6406 103.39L30.6963 103.874L30.7586 104.381L30.8042 104.726L30.8252 104.887C30.8739 105.26 30.9267 105.632 30.9833 106.004L30.9871 106.028L31.0409 106.379C31.3019 108.051 31.6251 109.713 32.0098 111.361L32.0145 111.381L32.0436 111.504L32.1268 111.856L32.178 111.795C34.1889 109.391 37.0737 108.066 40.3013 108.066C42.8881 108.066 45.5417 108.921 48.2016 110.608C49.9658 111.728 51.9164 113.713 53.9236 116.209C55.781 113.63 58.3843 111.915 61.3623 111.447C61.9301 111.357 62.504 111.312 63.0789 111.312C69.8759 111.312 73.9699 117.21 75.5165 122.516C76.2806 124.309 79.9634 132.473 85.5172 137.996C93.9595 146.43 96.0719 155.133 91.8937 164.451H91.9083C92.1926 164.483 92.4787 164.513 92.7666 164.539C92.9376 164.556 93.1076 164.572 93.2794 164.587L93.3398 164.592L93.7173 164.624L94.0646 164.652C94.3955 164.677 94.7273 164.701 95.06 164.722L95.3242 164.738L95.5335 164.75L95.6633 164.758L96.0719 164.779L96.1834 164.783L96.6121 164.802L97.0892 164.821L97.4722 164.832L97.5362 164.834C97.6176 164.837 97.6989 164.84 97.7803 164.84L97.868 164.843C98.4073 164.855 98.9457 164.862 99.485 164.861H100.057L100.466 164.856C100.566 164.852 100.666 164.852 100.767 164.852H100.926L101.064 164.848C101.118 164.846 101.172 164.844 101.227 164.844H101.391L101.712 164.836L102.194 164.82L102.725 164.796C102.879 164.791 103.031 164.782 103.182 164.775L103.346 164.765L103.589 164.752L103.732 164.744L103.84 164.737L104.33 164.705L104.82 164.669L105.266 164.633L105.578 164.607L105.922 164.576C106.496 164.525 107.068 164.464 107.64 164.396L108.031 164.349C103.918 155.07 106.047 146.404 114.454 138.004C119.996 132.467 123.678 124.302 124.446 122.509C125.994 117.204 130.085 111.305 136.884 111.305C137.459 111.305 138.034 111.351 138.601 111.44C141.577 111.908 144.18 113.623 146.04 116.203C148.048 113.707 149.998 111.721 151.763 110.6C154.422 108.915 157.078 108.059 159.662 108.059C162.511 108.059 165.092 109.092 167.042 110.987C167.077 110.833 167.112 110.678 167.146 110.523L167.245 110.06C167.281 109.891 167.317 109.722 167.35 109.553C167.411 109.254 167.471 108.955 167.529 108.653C167.589 108.341 167.647 108.026 167.701 107.712L167.73 107.542C167.747 107.441 167.764 107.341 167.783 107.239C167.814 107.082 167.84 106.925 167.865 106.766L167.875 106.706L167.94 106.291L168.004 105.872V105.868C168.051 105.558 168.095 105.249 168.136 104.939L168.146 104.862L168.203 104.425L168.25 104.052L168.332 103.317L168.364 103.022L168.372 102.941C168.39 102.782 168.406 102.623 168.421 102.464V102.452C168.433 102.325 168.446 102.198 168.457 102.071C168.521 101.351 168.576 100.627 168.62 99.9004C168.628 99.7815 168.635 99.6618 168.642 99.542V99.5366L168.666 99.0878L168.671 98.9872C168.686 98.6837 168.699 98.3803 168.709 98.0768V98.0658L168.713 97.947C168.718 97.8474 168.722 97.7468 168.722 97.6463L168.723 97.6061C168.727 97.5119 168.731 97.415 168.731 97.319L168.733 97.2368C168.736 97.1408 168.739 97.0457 168.739 96.9498L168.741 96.8684C168.744 96.7468 168.746 96.6244 168.746 96.5028V96.0558ZM82.3015 165.256C87.7877 157.211 87.3984 151.173 79.872 143.65C72.3438 136.126 67.9626 125.125 67.9626 125.125C67.9626 125.125 66.3275 118.735 62.5981 119.321C58.8687 119.908 56.1329 129.457 63.9418 135.303C71.7497 141.148 62.3879 145.112 59.3824 139.626C56.377 134.14 48.1714 120.039 43.9173 117.342C39.6633 114.644 36.6715 116.156 37.6743 121.715C38.1724 124.475 42.805 129.185 47.1331 133.585C51.5242 138.05 55.6018 142.196 54.7298 143.663C52.9994 146.576 46.9055 140.24 46.9055 140.24C46.9055 140.24 27.8234 122.874 23.6699 127.4C19.84 131.571 25.7457 135.116 34.8462 140.582C35.6195 141.046 36.4166 141.525 37.2329 142.019C47.645 148.322 48.4547 149.985 46.9767 152.369C46.431 153.251 42.9457 151.158 38.6587 148.585C31.3508 144.197 21.7148 138.412 20.3538 143.59C19.1765 148.071 26.2659 150.817 32.6954 153.308C38.0518 155.383 42.9512 157.281 42.23 159.856C41.4833 162.527 37.4349 160.3 33.0099 157.865C28.042 155.131 22.5987 152.136 20.8172 155.516C17.4507 161.905 44.0435 169.427 44.2629 169.482C52.8551 171.711 74.6755 176.433 82.3015 165.256ZM117.644 165.256C112.158 157.211 112.547 151.173 120.074 143.65C127.602 136.126 131.983 125.125 131.983 125.125C131.983 125.125 133.618 118.735 137.347 119.321C141.077 119.908 143.812 129.457 136.005 135.303C128.196 141.148 137.558 145.112 140.563 139.626C143.569 134.14 151.769 120.039 156.023 117.342C160.277 114.644 163.271 116.156 162.267 121.715C161.77 124.475 157.137 129.185 152.809 133.586C148.418 138.051 144.34 142.196 145.211 143.663C146.941 146.576 153.04 140.236 153.04 140.236C153.04 140.236 172.121 122.872 176.276 127.397C180.105 131.567 174.2 135.114 165.098 140.579C164.302 141.057 163.507 141.536 162.713 142.016C152.3 148.319 151.491 149.982 152.968 152.366C153.514 153.248 157 151.155 161.286 148.581C168.595 144.194 178.231 138.408 179.592 143.587C180.77 148.069 173.679 150.815 167.25 153.305C161.894 155.38 156.994 157.278 157.714 159.854C158.46 162.524 162.508 160.296 166.932 157.861C171.9 155.127 177.344 152.131 179.125 155.513C182.492 161.906 155.895 169.42 155.68 169.475C147.088 171.711 125.267 176.433 117.644 165.256Z" fill="#FFD21E"/>
<path fill-rule="evenodd" clip-rule="evenodd" d="M121.98 76.7527C123.061 77.1347 123.864 78.2974 124.628 79.4044C125.661 80.8998 126.623 82.2919 128.098 81.5076C129.838 80.5817 131.265 79.1612 132.198 77.4245C133.131 75.6878 133.529 73.714 133.34 71.7518C133.199 70.2846 132.735 68.8669 131.98 67.6009C131.225 66.3348 130.199 65.2519 128.976 64.4304C127.752 63.6088 126.36 63.069 124.903 62.8497C123.446 62.6304 121.957 62.7372 120.546 63.1624C119.135 63.5873 117.836 64.3199 116.742 65.3072C115.648 66.2946 114.786 67.5122 114.219 68.8725C113.652 70.2328 113.394 71.702 113.462 73.1741C113.532 74.6467 113.926 76.0845 114.618 77.3861C115.301 78.6722 116.819 78.0652 118.42 77.4245C119.675 76.9227 120.983 76.3998 121.98 76.7527ZM75.0203 76.7527C73.9399 77.1347 73.1364 78.2983 72.3723 79.4044C71.3394 80.9007 70.3769 82.2919 68.9025 81.5076C66.7138 80.3486 65.0353 78.4153 64.194 76.0863C63.3528 73.7568 63.4092 71.1975 64.3521 68.9073C65.2951 66.6172 67.0571 64.7602 69.2946 63.6985C71.5322 62.6367 74.085 62.4463 76.4554 63.1642C78.3429 63.7326 80.0193 64.8476 81.2734 66.3684C82.5275 67.8894 83.3017 69.7477 83.5001 71.7089C83.6975 73.67 83.309 75.6457 82.384 77.3861C81.6994 78.6722 80.182 78.0652 78.5806 77.4254C77.3247 76.9227 76.0185 76.3998 75.0203 76.7527ZM114.715 119.486C122.159 113.622 124.892 104.048 124.892 98.1509C124.892 93.4891 121.756 94.9562 116.735 97.4425L116.452 97.5823C111.843 99.8647 105.708 102.904 98.9733 102.904C92.2376 102.904 86.1024 99.8647 81.4946 97.5814C76.311 95.0138 73.0597 93.4032 73.0597 98.1518C73.0597 104.236 75.9682 114.226 83.9516 120.029C85.0055 117.891 86.4891 115.993 88.3099 114.454C90.1298 112.915 92.2486 111.768 94.5319 111.084C95.329 110.846 96.1498 112.218 96.9898 113.623C97.8006 114.978 98.6296 116.364 99.4724 116.364C100.371 116.364 101.253 114.998 102.115 113.665C103.015 112.271 103.894 110.914 104.743 111.185C109.016 112.557 112.591 115.533 114.715 119.486Z" fill="#32343D"/>
<path d="M114.714 119.485C110.837 122.54 105.684 124.588 98.9743 124.588C92.67 124.588 87.7395 122.78 83.9517 120.028C85.0056 117.89 86.4891 115.992 88.3099 114.453C90.1298 112.914 92.2486 111.767 94.5319 111.083C96.0968 110.616 97.7558 116.363 99.4724 116.363C101.31 116.363 103.08 110.653 104.743 111.184C109.015 112.557 112.589 115.533 114.714 119.485Z" fill="#FF323D"/>
<path fill-rule="evenodd" clip-rule="evenodd" d="M57.2217 85.046C56.3361 85.6383 55.3179 86.003 54.2575 86.1072C53.1971 86.2123 52.1273 86.0532 51.1432 85.6447C50.3564 85.3202 49.6415 84.843 49.0397 84.2407C48.4378 83.6392 47.9608 82.9244 47.6359 82.1374C47.2282 81.153 47.0696 80.0835 47.1745 79.0232C47.2792 77.9629 47.644 76.9446 48.2364 76.0589C48.9483 74.9931 49.9602 74.1625 51.1443 73.672C52.3283 73.1815 53.6312 73.0532 54.8882 73.3035C56.1452 73.5536 57.2996 74.1711 58.2056 75.0772C59.1115 75.9839 59.7282 77.1393 59.9776 78.3961C60.2274 79.653 60.0989 80.9555 59.6086 82.1392C59.1182 83.3229 58.2869 84.3339 57.2217 85.046ZM149.919 85.046C149.034 85.6383 148.015 86.003 146.955 86.1072C145.894 86.2123 144.825 86.0532 143.84 85.6447C143.053 85.3193 142.338 84.843 141.737 84.2407C141.135 83.6392 140.658 82.9244 140.333 82.1374C139.926 81.153 139.768 80.0835 139.872 79.0232C139.977 77.9629 140.342 76.9446 140.933 76.0589C141.465 75.2618 142.168 74.5936 142.99 74.1008C143.812 73.6082 144.732 73.3041 145.686 73.2104C146.64 73.1166 147.602 73.2356 148.504 73.5587C149.406 73.882 150.225 74.4011 150.902 75.079C151.809 75.9849 152.426 77.1393 152.675 78.3961C152.926 79.653 152.797 80.9555 152.306 82.1392C151.815 83.3229 150.985 84.3339 149.919 85.046Z" fill="#FFAD03"/>
</g>
<defs>
<clipPath id="clip0_1165_3339">
<rect width="200" height="200" fill="white"/>
</clipPath>
</defs>
</svg>
