<svg width="200" height="200" viewBox="0 0 200 200" fill="none" xmlns="http://www.w3.org/2000/svg">
<path d="M26.3538 119.542C26.3538 126.738 27.9331 132.262 29.9973 135.604C32.7037 139.981 36.7404 141.836 40.8557 141.836C46.1637 141.836 51.0195 140.519 60.3772 127.576C67.8739 117.203 76.7074 102.642 82.6511 93.5135L92.7166 78.0483C99.7087 67.3079 107.802 55.3682 117.081 47.2752C124.656 40.6697 132.828 37 141.052 37C154.859 37 168.011 45.0013 178.077 60.0078C189.092 76.4428 194.44 97.1439 194.44 118.507C194.44 131.207 191.936 140.538 187.677 147.91C183.562 155.04 175.541 162.163 162.048 162.163V141.836C173.601 141.836 176.484 131.22 176.484 119.07C176.484 101.757 172.448 82.5437 163.555 68.8151C157.244 59.0772 149.066 53.1271 140.069 53.1271C130.338 53.1271 122.507 60.4665 113.706 73.5529C109.027 80.5057 104.224 88.9788 98.8306 98.5397L92.8935 109.057C80.9669 130.204 77.946 135.021 71.9827 142.969C61.5306 156.888 52.6053 162.163 40.8557 162.163C26.9173 162.163 18.1035 156.128 12.6448 147.032C8.18872 139.621 6 129.896 6 118.815L26.3538 119.542Z" fill="#0081FB"/>
<path d="M22.0488 61.4429C31.3804 47.0589 44.8469 37 60.2924 37C69.2374 37 78.1299 39.6474 87.4155 47.2293C97.5728 55.5189 108.398 69.1689 121.904 91.6656L126.747 99.7389C138.438 119.215 145.089 129.234 148.981 133.959C153.988 140.027 157.494 141.836 162.048 141.836C173.601 141.836 176.485 131.22 176.485 119.07L194.44 118.507C194.44 131.207 191.937 140.538 187.677 147.91C183.562 155.04 175.541 162.163 162.048 162.163C153.66 162.163 146.229 160.342 138.012 152.589C131.695 146.639 124.309 136.069 118.628 126.567L101.727 98.3366C93.2478 84.1689 85.4693 73.6054 80.9673 68.8216C76.1246 63.6775 69.8992 57.4652 59.9648 57.4652C51.9242 57.4652 45.0959 63.1074 39.3817 71.7377L22.0488 61.4429Z" fill="url(#paint0_linear_1164_3257)"/>
<path d="M59.9644 57.4652C51.9238 57.4652 45.0955 63.1074 39.3813 71.7377C31.3013 83.933 26.3538 102.098 26.3538 119.542C26.3538 126.738 27.9331 132.262 29.9973 135.604L12.6448 147.032C8.18872 139.621 6 129.896 6 118.815C6 98.6642 11.5308 77.6617 22.0484 61.4429C31.38 47.0589 44.8465 37 60.292 37L59.9644 57.4652Z" fill="url(#paint1_linear_1164_3257)"/>
<defs>
<linearGradient id="paint0_linear_1164_3257" x1="45.974" y1="113.671" x2="175.724" y2="120.224" gradientUnits="userSpaceOnUse">
<stop stop-color="#0064E1"/>
<stop offset="0.4" stop-color="#0064E1"/>
<stop offset="0.83" stop-color="#0073EE"/>
<stop offset="1" stop-color="#0082FB"/>
</linearGradient>
<linearGradient id="paint1_linear_1164_3257" x1="35.4887" y1="128.087" x2="35.4887" y2="80.2502" gradientUnits="userSpaceOnUse">
<stop stop-color="#0082FB"/>
<stop offset="1" stop-color="#0064E0"/>
</linearGradient>
</defs>
</svg>
