<svg width="200" height="200" viewBox="0 0 200 200" fill="none" xmlns="http://www.w3.org/2000/svg">
<path d="M100.059 143.098L106.691 114.889L91.9819 52.3333C91.092 48.5519 88.3786 37 79.7964 37V56.9024L96.5948 128.338L100.059 143.098Z" fill="#13294E"/>
<path d="M179.478 139.209L176.954 128.35L159.051 52.3333C158.161 48.5519 155.448 37 146.859 37V56.9024L163.658 128.338L166.908 142.133C167.101 142.96 167.13 143.817 166.991 144.655C166.852 145.493 166.55 146.295 166.1 147.016C165.65 147.736 165.062 148.361 164.371 148.855C163.679 149.348 162.896 149.701 162.068 149.891C161.58 150.009 161.08 150.068 160.578 150.068C159.125 150.057 157.718 149.56 156.581 148.656C155.444 147.752 154.643 146.494 154.306 145.083L153.959 143.615L150.399 128.338L140.044 84.3296L133.595 56.9024L126.962 85.1111L137.135 128.338L141.76 148.013C142.34 150.487 143.403 152.822 144.887 154.885C146.37 156.948 148.246 158.7 150.408 160.039C152.569 161.378 154.973 162.279 157.483 162.691C159.993 163.102 162.56 163.015 165.037 162.436C167.513 161.857 169.851 160.796 171.917 159.314C173.983 157.832 175.737 155.959 177.078 153.8C178.419 151.641 179.321 149.24 179.733 146.734C180.145 144.227 180.058 141.664 179.478 139.19V139.209Z" fill="#13294E"/>
<path d="M83.3324 128.336L66.641 57.361L60.0088 85.5634L70.0676 128.336L74.6112 147.653C75.0973 149.714 76.1195 154.056 78.3282 157.591C83.7425 155.02 85.8438 147.104 86.6767 143.6L86.803 143.084L83.3324 128.336Z" fill="#13294E"/>
<path d="M179.478 139.209L176.954 128.35L159.051 52.3333C158.161 48.5519 155.448 37 146.859 37V56.9024L163.658 128.338L166.908 142.133C167.101 142.96 167.13 143.817 166.991 144.655C166.852 145.493 166.55 146.295 166.1 147.016C165.65 147.736 165.062 148.361 164.371 148.855C163.679 149.348 162.896 149.701 162.068 149.891C161.58 150.009 161.08 150.068 160.578 150.068C159.125 150.057 157.718 149.56 156.581 148.656C155.444 147.752 154.643 146.494 154.306 145.083L153.959 143.615L150.399 128.338L140.044 84.3296L133.595 56.9024L126.962 85.1111L137.135 128.338L141.76 148.013C142.34 150.487 143.403 152.822 144.887 154.885C146.37 156.948 148.246 158.7 150.408 160.039C152.569 161.378 154.973 162.279 157.483 162.691C159.993 163.102 162.56 163.015 165.037 162.436C167.513 161.857 169.851 160.796 171.917 159.314C173.983 157.832 175.737 155.959 177.078 153.8C178.419 151.641 179.321 149.24 179.733 146.734C180.145 144.227 180.058 141.664 179.478 139.19V139.209Z" fill="url(#paint0_linear_1164_3290)"/>
<path d="M91.9819 52.3333C91.092 48.5519 88.3786 37 79.7964 37V56.9024L96.5948 128.338L100.059 143.085L106.691 114.876L91.9819 52.3333Z" fill="url(#paint1_linear_1164_3290)"/>
<path d="M66.641 57.361L60.0088 85.5634L70.0676 128.336L74.6112 147.653C75.0973 149.714 76.1195 154.056 78.3282 157.591C83.7425 155.02 85.8438 147.104 86.6767 143.6L86.803 143.084L83.3324 128.336L66.641 57.361Z" fill="url(#paint2_linear_1164_3290)"/>
<path d="M146.858 37C138.276 37 135.562 48.5393 134.673 52.3333L133.594 56.9024L113.324 143.098C113.293 143.255 113.249 143.438 113.204 143.615C112.365 147.118 110.27 155.034 104.85 157.605C106.711 160.586 109.406 163 113.331 163C121.913 163 124.626 151.461 125.516 147.667L126.469 143.615L146.858 56.9024C147.609 53.7197 149.641 45.0983 155.339 42.4073C153.478 39.4137 150.783 37 146.858 37Z" fill="#EE3932"/>
<path d="M88.3471 42.3947C86.4856 39.4137 83.7909 37 79.866 37C71.2837 37 68.5701 48.5393 67.6805 52.3333L66.6075 56.9024L46.2122 143.615L45.8715 145.083C45.5323 146.493 44.7307 147.75 43.5942 148.654C42.4576 149.557 41.0513 150.054 39.5988 150.068C39.0972 150.068 38.5972 150.009 38.1096 149.891C36.4436 149.5 35.001 148.465 34.0984 147.013C33.1957 145.561 32.9067 143.811 33.2947 142.146L53.343 56.9024C54.0877 53.7197 56.1196 45.0983 61.8178 42.4073C59.9563 39.4263 57.2682 37.0126 53.343 37.0126C44.7545 37.0126 42.041 48.5519 41.1512 52.3459L40.0784 56.915L20.7117 139.209C19.5401 144.204 20.4035 149.46 23.1118 153.819C25.8201 158.179 30.1515 161.285 35.1531 162.455C40.1548 163.625 45.417 162.763 49.7821 160.058C54.1474 157.353 57.2576 153.027 58.4291 148.032L59.4643 143.621L79.8534 56.9087C80.6167 53.7198 82.6489 45.0984 88.3471 42.3947Z" fill="#EE3932"/>
<path d="M128.812 42.3947C126.95 39.4137 124.255 37 120.331 37C111.748 37 109.035 48.5393 108.145 52.3333L107.072 56.9024L86.8029 143.098L86.6766 143.615C85.8436 147.118 83.7424 155.034 78.3218 157.605C80.1833 160.586 82.8777 163 86.8029 163C95.3852 163 98.0988 151.461 98.9884 147.667L99.9414 143.615L120.337 56.9024C121.081 53.7197 123.113 45.0983 128.812 42.3947Z" fill="#EE3932"/>
<defs>
<linearGradient id="paint0_linear_1164_3290" x1="132.093" y1="93.7136" x2="152.787" y2="99.9423" gradientUnits="userSpaceOnUse">
<stop stop-color="#070D19"/>
<stop offset="1" stop-color="#13294E" stop-opacity="0"/>
</linearGradient>
<linearGradient id="paint1_linear_1164_3290" x1="8928.31" y1="28944.1" x2="9817.1" y2="29018.1" gradientUnits="userSpaceOnUse">
<stop stop-color="#070D19"/>
<stop offset="1" stop-color="#13294E" stop-opacity="0"/>
</linearGradient>
<linearGradient id="paint2_linear_1164_3290" x1="8580.58" y1="30726.8" x2="9465.6" y2="30804.4" gradientUnits="userSpaceOnUse">
<stop stop-color="#070D19"/>
<stop offset="1" stop-color="#13294E" stop-opacity="0"/>
</linearGradient>
</defs>
</svg>
