<svg width="200" height="200" viewBox="0 0 200 200" fill="none" xmlns="http://www.w3.org/2000/svg">
<path d="M176.9 83.6724C180.984 71.4154 179.578 57.9883 173.047 46.8394C163.226 29.7392 143.482 20.9416 124.199 25.0817C115.621 15.4178 103.296 9.92208 90.3755 10.0008C70.6653 9.95583 53.1769 22.646 47.1131 41.4C34.451 43.9932 23.5215 51.9189 17.1258 63.1522C7.23131 80.2074 9.48697 101.706 22.7059 116.332C18.6221 128.589 20.0284 142.016 26.5591 153.165C36.3804 170.265 56.1245 179.062 75.4072 174.922C83.9798 184.586 96.31 190.082 109.231 189.998C128.952 190.048 146.446 177.347 152.51 158.576C165.172 155.983 176.102 148.057 182.497 136.824C192.381 119.769 190.119 98.2864 176.906 83.6612L176.9 83.6724ZM109.242 178.236C101.35 178.247 93.7056 175.485 87.6474 170.428C87.923 170.282 88.4011 170.017 88.7105 169.826L124.553 149.126C126.387 148.085 127.512 146.133 127.501 144.024V93.4938L142.649 102.241C142.812 102.32 142.919 102.477 142.942 102.657V144.502C142.919 163.11 127.85 178.196 109.242 178.236ZM36.7686 147.281C32.8141 140.452 31.391 132.447 32.7466 124.679C33.011 124.837 33.4779 125.124 33.8098 125.315L69.6528 146.015C71.4697 147.078 73.7197 147.078 75.5422 146.015L119.3 120.747V138.241C119.311 138.421 119.227 138.596 119.086 138.708L82.8548 159.628C66.7165 168.92 46.1062 163.397 36.7742 147.281H36.7686ZM27.3353 69.0416C31.2729 62.2015 37.4886 56.9702 44.8912 54.2533C44.8912 54.5627 44.8743 55.1083 44.8743 55.4908V96.897C44.8631 99.0008 45.9881 100.953 47.8162 101.993L91.5737 127.256L76.4253 136.003C76.2735 136.104 76.0822 136.121 75.9135 136.048L39.6767 115.111C23.5722 105.785 18.0483 85.18 27.3297 69.0472L27.3353 69.0416ZM151.796 98.0051L108.038 72.7373L123.187 63.9959C123.338 63.8947 123.53 63.8778 123.698 63.9509L159.935 84.8706C176.068 94.1913 181.597 114.83 172.277 130.962C168.333 137.791 162.123 143.023 154.726 145.745V103.101C154.743 100.998 153.624 99.0514 151.801 98.0051H151.796ZM166.871 75.3136C166.607 75.1505 166.14 74.8692 165.808 74.6779L129.965 53.9777C128.148 52.9145 125.898 52.9145 124.075 53.9777L80.3179 79.2455V61.7515C80.3066 61.5715 80.391 61.3971 80.5317 61.2846L116.763 40.3819C132.901 31.0724 153.534 36.6131 162.838 52.757C166.77 59.5746 168.193 67.5566 166.86 75.3136H166.871ZM72.0828 106.493L56.9288 97.7464C56.7657 97.6676 56.6588 97.5101 56.6363 97.3301V55.4852C56.6476 36.8549 71.7622 21.7572 90.3924 21.7685C98.2731 21.7685 105.901 24.536 111.959 29.5761C111.683 29.7223 111.211 29.9867 110.896 30.178L75.0528 50.8783C73.2191 51.9189 72.094 53.8652 72.1053 55.9746L72.0828 106.482V106.493ZM80.3123 88.7519L99.8032 77.4961L119.294 88.7463V111.252L99.8032 122.502L80.3123 111.252V88.7519Z" fill="black"/>
</svg>
