<svg width="200" height="200" viewBox="0 0 200 200" fill="none" xmlns="http://www.w3.org/2000/svg">
<path d="M111.062 45.1242L115.096 22.7082" stroke="#201D1E" stroke-width="10.1996" stroke-linecap="square"/>
<path d="M129.617 37.1722L115.557 20L96.4253 31.1792" stroke="#201D1E" stroke-width="10.1996" stroke-linecap="square" stroke-linejoin="round"/>
<path d="M94.2334 140.781L98.1519 118.365" stroke="#201D1E" stroke-width="10.1996" stroke-linecap="square"/>
<path d="M112.789 132.771L98.6138 115.657L79.54 126.894" stroke="#201D1E" stroke-width="10.1996" stroke-linecap="square" stroke-linejoin="round"/>
<path d="M102.359 94.5663L106.278 72.1503" stroke="#201D1E" stroke-width="10.1996" stroke-linecap="square"/>
<path d="M120.914 86.5567L106.796 69.4998L87.7227 80.6789" stroke="#201D1E" stroke-width="10.1996" stroke-linecap="square" stroke-linejoin="round"/>
<path d="M89.1047 179.044C94.2923 179.044 98.4976 174.839 98.4976 169.651C98.4976 164.464 94.2923 160.259 89.1047 160.259C83.9172 160.259 79.7119 164.464 79.7119 169.651C79.7119 174.839 83.9172 179.044 89.1047 179.044Z" fill="#201D1E"/>
<path d="M62.4822 138.822L45.2524 150.808" stroke="#201D1E" stroke-width="9.68095" stroke-linecap="square"/>
<path d="M63.5202 158.242L43.1787 152.249L44.677 131.101" stroke="#201D1E" stroke-width="9.68095" stroke-linecap="square" stroke-linejoin="round"/>
<path d="M125.063 150.059L137.049 167.346" stroke="#201D1E" stroke-width="9.68095" stroke-linecap="square"/>
<path d="M117.342 167.922L138.491 169.363L144.484 149.137" stroke="#201D1E" stroke-width="9.68095" stroke-linecap="square" stroke-linejoin="round"/>
<path d="M144.714 114.965L165.805 118.769" stroke="#201D1E" stroke-width="9.91145" stroke-linecap="square"/>
<path d="M151.974 133.463L168.339 119.23L158.024 100.271" stroke="#201D1E" stroke-width="9.91145" stroke-linecap="square" stroke-linejoin="round"/>
<path d="M138.549 73.1298L157.335 62.7574" stroke="#201D1E" stroke-width="9.91145" stroke-linecap="square"/>
<path d="M139.584 53.2495L159.58 61.5475L155.835 82.811" stroke="#201D1E" stroke-width="9.91145" stroke-linecap="square" stroke-linejoin="round"/>
<path d="M55.6834 99.2915L34.5352 95.6035" stroke="#201D1E" stroke-width="9.91145" stroke-linecap="square"/>
<path d="M42.4877 114.159L32 95.2002L48.1925 80.9093" stroke="#201D1E" stroke-width="9.91145" stroke-linecap="square" stroke-linejoin="round"/>
<path d="M75.7377 62.0083L61.6196 45.8734" stroke="#201D1E" stroke-width="9.91145" stroke-linecap="square"/>
<path d="M81.5565 43.0499L59.9473 43.9719L56.144 65.2354" stroke="#201D1E" stroke-width="9.91145" stroke-linecap="square" stroke-linejoin="round"/>
</svg>
