<svg width="7" height="12" viewBox="0 0 6 12" fill="none" xmlns="http://www.w3.org/2000/svg">
<path d="M4.85227 10.0923C4.6179 10.0923 4.41667 10.0095 4.24858 9.84375C4.08286 9.67566 4 9.47443 4 9.24005C4 9.00805 4.08286 8.80918 4.24858 8.64346C4.41667 8.47774 4.6179 8.39488 4.85227 8.39488C5.07955 8.39488 5.27841 8.47774 5.44886 8.64346C5.61932 8.80918 5.70455 9.00805 5.70455 9.24005C5.70455 9.3963 5.6643 9.53953 5.58381 9.66974C5.50568 9.79758 5.4027 9.90056 5.27486 9.97869C5.14702 10.0544 5.00616 10.0923 4.85227 10.0923Z" fill="#3088DB"/>
<path d="M0.63208 10V2.72727H5.44742V3.99503H2.16972V5.72798H5.12782V6.99574H2.16972V10H0.63208Z" fill="black"/>
</svg>
