<svg width="85" height="32" viewBox="0 0 85 32" fill="none" xmlns="http://www.w3.org/2000/svg">
<g clip-path="url(#clip0_343_2295)">
<path d="M3 29.2206V3.47105H20.049V7.95962H8.44412V14.0953H18.9175V18.5838H8.44412V29.2206H3Z" fill="black"/>
<path d="M28.9665 3.47105V29.2206H23.6103V3.47105H28.9665Z" fill="black"/>
<path d="M38.764 29.5852C37.5318 29.5852 36.4338 29.3715 35.4699 28.944C34.5059 28.5082 33.7432 27.8669 33.1816 27.0203C32.6284 26.1654 32.3517 25.1009 32.3517 23.8268C32.3517 22.7539 32.5487 21.8528 32.9427 21.1236C33.3366 20.3944 33.8731 19.8076 34.552 19.3634C35.231 18.9191 36.0021 18.5838 36.8655 18.3575C37.7372 18.1312 38.6508 17.9719 39.6064 17.8797C40.7296 17.7624 41.6348 17.6534 42.3222 17.5528C43.0095 17.4439 43.5082 17.2846 43.8184 17.0751C44.1285 16.8655 44.2836 16.5554 44.2836 16.1447V16.0692C44.2836 15.2729 44.0321 14.6569 43.5292 14.221C43.0346 13.7851 42.3306 13.5672 41.4169 13.5672C40.453 13.5672 39.686 13.7809 39.116 14.2084C38.5461 14.6275 38.1689 15.1556 37.9845 15.7926L33.0307 15.3903C33.2822 14.2168 33.7767 13.2026 34.5143 12.3476C35.2519 11.4843 36.2033 10.8221 37.3684 10.3611C38.5419 9.89168 39.8998 9.65698 41.4421 9.65698C42.515 9.65698 43.5418 9.78271 44.5224 10.0342C45.5115 10.2856 46.3874 10.6754 47.1502 11.2035C47.9214 11.7315 48.5291 12.4105 48.9733 13.2403C49.4175 14.0617 49.6397 15.0466 49.6397 16.195V29.2206H44.5602V26.5426H44.4093C44.0992 27.1461 43.6842 27.6783 43.1646 28.1393C42.6449 28.592 42.0204 28.9482 41.2912 29.2081C40.5619 29.4595 39.7196 29.5852 38.764 29.5852ZM40.2979 25.8888C41.0858 25.8888 41.7815 25.7337 42.385 25.4236C42.9885 25.105 43.4621 24.6776 43.8058 24.1411C44.1494 23.6047 44.3213 22.997 44.3213 22.318V20.2686C44.1536 20.3776 43.9231 20.4782 43.6298 20.5704C43.3448 20.6542 43.0221 20.7338 42.6616 20.8093C42.3012 20.8763 41.9408 20.9392 41.5804 20.9979C41.2199 21.0482 40.893 21.0943 40.5997 21.1362C39.971 21.2284 39.422 21.375 38.9526 21.5762C38.4832 21.7774 38.1186 22.0498 37.8587 22.3935C37.5989 22.7287 37.469 23.1478 37.469 23.6508C37.469 24.38 37.733 24.9374 38.2611 25.323C38.7975 25.7002 39.4765 25.8888 40.2979 25.8888Z" fill="black"/>
<path d="M53.7951 29.2206V9.90844H59.1512V29.2206H53.7951ZM56.4857 7.41898C55.6894 7.41898 55.0063 7.15494 54.4363 6.62688C53.8747 6.09043 53.5939 5.4492 53.5939 4.7032C53.5939 3.96558 53.8747 3.33274 54.4363 2.80468C55.0063 2.26823 55.6894 2 56.4857 2C57.282 2 57.9609 2.26823 58.5225 2.80468C59.0925 3.33274 59.3775 3.96558 59.3775 4.7032C59.3775 5.4492 59.0925 6.09043 58.5225 6.62688C57.9609 7.15494 57.282 7.41898 56.4857 7.41898Z" fill="black"/>
<path d="M63.4417 29.2206V9.90844H68.6344V13.278H68.8356C69.1876 12.0794 69.7785 11.1741 70.6084 10.5622C71.4382 9.94197 72.3937 9.63183 73.475 9.63183C73.7432 9.63183 74.0324 9.6486 74.3425 9.68213C74.6527 9.71565 74.9251 9.76176 75.1598 9.82043V14.573C74.9083 14.4976 74.5605 14.4305 74.1162 14.3719C73.672 14.3132 73.2655 14.2839 72.8966 14.2839C72.1087 14.2839 71.4046 14.4557 70.7844 14.7994C70.1725 15.1346 69.6863 15.604 69.3259 16.2075C68.9739 16.811 68.7978 17.5067 68.7978 18.2947V29.2206H63.4417Z" fill="black"/>
<path d="M78.8468 29.5475C78.017 29.5475 77.3046 29.2542 76.7094 28.6674C76.1227 28.0723 75.8293 27.3598 75.8293 26.53C75.8293 25.7086 76.1227 25.0045 76.7094 24.4177C77.3046 23.831 78.017 23.5376 78.8468 23.5376C79.6515 23.5376 80.3556 23.831 80.9591 24.4177C81.5626 25.0045 81.8644 25.7086 81.8644 26.53C81.8644 27.0832 81.7219 27.5903 81.4369 28.0513C81.1603 28.504 80.7957 28.8686 80.343 29.1452C79.8904 29.4134 79.3917 29.5475 78.8468 29.5475Z" fill="#3088DB"/>
</g>
<defs>
<clipPath id="clip0_343_2295">
<rect width="85" height="32" fill="white"/>
</clipPath>
</defs>
</svg>
