<svg width="330" height="180" viewBox="0 0 330 180" fill="none" xmlns="http://www.w3.org/2000/svg">
<rect width="330" height="180" fill="#F7F7F7"/>
<rect x="24" y="61" width="66" height="60" rx="6" fill="white" stroke="black" stroke-width="2"/>
<path d="M30 61H84C87.3137 61 90 63.6863 90 67V73H24V67C24 63.6863 26.6863 61 30 61Z" fill="white" stroke="black" stroke-width="2"/>
<rect x="131" y="16" width="66" height="60" rx="6" fill="white" stroke="black" stroke-width="2"/>
<path d="M137 16H191C194.314 16 197 18.6863 197 22V28H131V22C131 18.6863 133.686 16 137 16Z" fill="white" stroke="black" stroke-width="2"/>
<rect x="131" y="104" width="66" height="60" rx="6" fill="white" stroke="black" stroke-width="2"/>
<path d="M137 104H191C194.314 104 197 106.686 197 110V116H131V110C131 106.686 133.686 104 137 104Z" fill="white" stroke="black" stroke-width="2"/>
<rect x="241" y="16" width="66" height="60" rx="6" fill="white" stroke="black" stroke-width="2"/>
<path d="M247 16H301C304.314 16 307 18.6863 307 22V28H241V22C241 18.6863 243.686 16 247 16Z" fill="white" stroke="black" stroke-width="2"/>
<path d="M130 48.4999L120.154 42.4668L119.852 54.0098L130 48.4999ZM90.5 92.5C99.2215 92.5 104.25 89.9244 107.058 85.749C109.798 81.6764 110.259 76.291 110.423 71.1045C110.591 65.787 110.455 60.692 111.735 56.6624C112.363 54.688 113.314 53.0404 114.767 51.7924C116.219 50.5457 118.245 49.6333 121.131 49.256L120.872 47.2729C117.687 47.6893 115.271 48.7234 113.464 50.2753C111.659 51.8258 110.537 53.8289 109.829 56.0567C108.439 60.4314 108.585 65.9468 108.424 71.0413C108.259 76.2668 107.779 81.0949 105.399 84.6328C103.088 88.068 98.8192 90.5 90.5 90.5L90.5 92.5Z" fill="black"/>
<path d="M130 135.56L120.146 141.579L119.86 130.035L130 135.56ZM91 91C99.6095 91 104.578 93.6063 107.353 97.8228C110.056 101.932 110.518 107.366 110.682 112.611C110.85 117.985 110.711 123.15 111.963 127.244C112.577 129.252 113.509 130.928 114.929 132.199C116.346 133.467 118.323 134.397 121.139 134.792L120.861 136.773C117.734 136.334 115.364 135.272 113.596 133.69C111.831 132.111 110.738 130.08 110.05 127.828C108.697 123.401 108.844 117.828 108.683 112.673C108.518 107.389 108.038 102.502 105.682 98.9222C103.397 95.45 99.1884 93 91 93L91 91Z" fill="black"/>
<path d="M240.5 45L230.5 39.2265V50.7735L240.5 45ZM198 46H231.5V44H198V46Z" fill="black"/>
</svg>
